<?xml version="1.0" standalone="no"?>
<!DOCTYPE svg PUBLIC "-//W3C//DTD SVG 20010904//EN"
 "http://www.w3.org/TR/2001/REC-SVG-20010904/DTD/svg10.dtd">
<svg version="1.0" xmlns="http://www.w3.org/2000/svg"
 width="1515.000000pt" height="1515.000000pt" viewBox="0 0 1515.000000 1515.000000"
 preserveAspectRatio="xMidYMid meet">
<metadata>
Created by potrace 1.11, written by Peter Selinger 2001-2013
</metadata>
<g transform="translate(0.000000,1515.000000) scale(0.100000,-0.100000)"
fill="#000000" stroke="none">
<path d="M7240 15103 c-441 -23 -760 -62 -1150 -139 -1035 -205 -2012 -626
-2881 -1244 -1773 -1260 -2921 -3236 -3133 -5395 -39 -390 -46 -963 -16 -1315
47 -572 149 -1114 305 -1624 25 -82 46 -150 48 -151 1 -1 1611 1230 3577 2735
l3575 2737 26 -16 c14 -9 312 -235 662 -503 350 -269 639 -488 642 -488 3 0 5
81 5 180 l0 180 865 0 865 0 1 -847 0 -848 2040 -1560 c1122 -858 2045 -1560
2051 -1560 19 0 136 409 203 714 68 309 126 698 155 1051 6 69 13 262 17 430
14 695 -59 1327 -232 2005 -340 1341 -1037 2543 -2041 3525 -1415 1383 -3314
2152 -5284 2138 -135 -1 -270 -3 -300 -5z"/>
<path d="M4559 7609 c-1652 -1327 -3197 -2568 -3434 -2758 -236 -189 -429
-349 -427 -355 10 -34 137 -295 215 -441 709 -1334 1791 -2417 3126 -3131 851
-454 1760 -729 2746 -829 379 -38 906 -49 1260 -25 681 45 1409 190 1983 395
53 19 105 35 114 35 9 0 108 36 219 81 1655 662 3025 1893 3866 3474 78 146
205 407 215 441 2 6 -123 112 -277 235 -154 124 -1696 1362 -3427 2752 -1731
1390 -3154 2530 -3161 2533 -9 3 -1194 -942 -3018 -2407z"/>
</g>
</svg>
