<?xml version="1.0" standalone="no"?>
<!DOCTYPE svg PUBLIC "-//W3C//DTD SVG 20010904//EN"
 "http://www.w3.org/TR/2001/REC-SVG-20010904/DTD/svg10.dtd">
<svg version="1.0" xmlns="http://www.w3.org/2000/svg"
 width="9176.000000pt" height="9176.000000pt" viewBox="0 0 9176.000000 9176.000000"
 preserveAspectRatio="xMidYMid meet">
<metadata>
Created by potrace 1.11, written by Peter Selinger 2001-2013
</metadata>
<g transform="translate(0.000000,9176.000000) scale(0.100000,-0.100000)"
fill="#000000" stroke="none">
<path d="M63166 91750 c-1331 -93 -2542 -729 -3375 -1772 -501 -628 -832
-1375 -961 -2170 -69 -425 -78 -925 -24 -1348 131 -1035 601 -1994 1339 -2735
1100 -1103 2661 -1586 4207 -1300 1054 194 2038 771 2732 1601 387 462 679
986 866 1554 92 277 166 613 206 935 22 175 30 705 15 902 -90 1127 -558 2146
-1356 2949 -185 186 -316 302 -501 441 -698 526 -1481 833 -2364 928 -176 19
-607 27 -784 15z m2304 -2035 l0 -425 -1510 0 -1510 0 0 -905 0 -905 1290 0
1290 0 0 -415 0 -415 -1290 0 -1290 0 0 -935 0 -935 1510 0 1510 0 0 -420 0
-420 -1980 0 -1980 0 0 3100 0 3100 1980 0 1980 0 0 -425z"/>
<path d="M75400 87039 c-855 -93 -1596 -496 -2137 -1160 -768 -945 -909 -2285
-355 -3380 646 -1276 2068 -1954 3471 -1653 1242 266 2219 1288 2425 2537 170
1023 -148 2020 -874 2747 -407 408 -894 686 -1444 825 -272 69 -424 87 -736
91 -146 1 -303 -2 -350 -7z m-275 -2334 c294 -627 555 -1182 580 -1234 l45
-94 29 64 c35 77 212 462 721 1571 l385 837 303 1 302 0 0 -1990 0 -1990 -300
0 -300 0 -2 1326 -3 1325 -157 -333 c-87 -183 -292 -616 -456 -963 l-298 -630
-225 -3 -224 -2 -197 407 c-547 1132 -731 1509 -739 1518 -5 5 -9 -521 -9
-1318 l0 -1327 -300 0 -300 0 0 1990 0 1990 305 -2 306 -3 534 -1140z"/>
<path d="M54295 82339 c-693 -52 -1361 -343 -1882 -820 -565 -517 -918 -1220
-999 -1989 -21 -205 -15 -576 14 -765 89 -576 309 -1083 662 -1525 105 -131
345 -371 470 -471 604 -482 1309 -718 2070 -696 475 14 900 121 1320 332 311
156 581 355 835 616 199 205 342 394 485 643 376 654 499 1470 333 2216 -29
133 -80 304 -129 440 -48 131 -199 433 -278 558 -408 645 -1049 1131 -1771
1342 -368 107 -749 147 -1130 119z m653 -1275 c252 -37 460 -136 635 -303 170
-162 267 -342 313 -578 24 -121 24 -378 0 -488 -82 -377 -312 -641 -676 -776
-47 -17 -74 -32 -72 -41 3 -13 826 -1600 869 -1675 l24 -43 -348 0 -348 0
-413 825 -412 825 0 254 0 254 78 7 c373 34 649 225 712 494 8 35 11 91 7 160
-9 173 -57 280 -175 393 -50 47 -97 81 -146 104 -145 68 -137 68 -703 72
l-513 3 0 -1695 0 -1696 -300 0 -300 0 0 1960 0 1960 831 0 c702 0 848 -2 937
-16z"/>
<path d="M68010 82340 c-689 -84 -1240 -592 -1370 -1265 -166 -864 410 -1697
1277 -1845 130 -23 352 -27 480 -9 343 46 642 197 893 448 228 229 363 477
431 790 26 122 36 389 20 516 -90 677 -597 1215 -1268 1345 -124 24 -349 34
-463 20z"/>
<path d="M43605 82334 c-1258 -34 -2364 -119 -3495 -269 -4033 -538 -7870
-1838 -11415 -3868 -2767 -1585 -5301 -3609 -7495 -5987 -802 -869 -1611
-1858 -2316 -2830 -3544 -4886 -5583 -10619 -5919 -16640 -35 -642 -40 -847
-40 -1770 0 -923 5 -1128 40 -1770 129 -2313 513 -4600 1147 -6830 97 -343
342 -1146 353 -1158 2 -2 6712 5129 14911 11403 13714 10494 14910 11406
14928 11395 12 -7 1256 -958 2764 -2112 1509 -1155 2750 -2102 2758 -2105 12
-4 14 105 14 766 l0 771 3605 0 3605 0 2 -3537 3 -3537 8525 -6523 c4689
-3588 8526 -6523 8527 -6523 4 0 149 453 217 680 725 2406 1156 4869 1291
7390 32 613 39 915 39 1695 0 1046 -25 1673 -105 2635 -390 4712 -1838 9249
-4252 13325 -797 1345 -1712 2654 -2720 3888 -104 128 -201 245 -216 260 l-28
28 -128 -71 c-1028 -576 -2287 -605 -3345 -78 -353 175 -630 372 -918 652
-309 301 -541 623 -731 1018 -487 1006 -477 2170 29 3178 l58 116 -221 166
c-1283 957 -2557 1771 -3960 2528 -115 61 -211 110 -213 107 -3 -2 -14 -67
-25 -143 -220 -1518 -1215 -2809 -2630 -3414 -1052 -450 -2245 -466 -3319 -43
-929 366 -1718 1052 -2212 1923 -474 836 -662 1822 -527 2765 88 618 314 1235
636 1733 29 45 53 86 53 91 0 9 -736 157 -1105 222 -1420 250 -2776 394 -4340
459 -242 10 -1585 20 -1830 14z m15422 -9580 c679 -100 1240 -607 1412 -1276
43 -168 55 -282 48 -486 -6 -198 -25 -308 -83 -482 -124 -373 -368 -687 -699
-902 -550 -357 -1252 -369 -1820 -30 -161 96 -350 264 -470 417 -325 417 -440
953 -314 1467 121 494 447 901 904 1128 335 166 657 217 1022 164z m-5435
-1178 c686 -107 1269 -531 1578 -1146 155 -309 224 -605 223 -955 -1 -338 -71
-632 -222 -935 -472 -945 -1572 -1397 -2569 -1055 -768 263 -1311 929 -1418
1739 -22 164 -14 464 15 622 75 400 246 753 508 1045 352 392 832 638 1364
698 112 13 400 6 521 -13z m-170 -6030 c374 -72 638 -389 638 -766 0 -207 -67
-378 -208 -531 -206 -223 -527 -306 -812 -210 -113 38 -173 71 -261 144 -116
96 -207 239 -251 394 -29 102 -31 294 -4 393 108 399 502 652 898 576z"/>
<path d="M58648 71830 c-310 -53 -560 -281 -638 -585 -26 -101 -28 -259 -5
-365 9 -41 39 -122 67 -180 45 -93 61 -115 147 -201 86 -86 108 -102 201 -147
142 -68 227 -86 389 -80 107 4 139 10 214 35 256 89 449 300 514 560 26 104
23 287 -5 387 -69 242 -247 442 -471 529 -130 50 -286 68 -413 47z"/>
<path d="M53074 70646 c-168 -33 -343 -107 -480 -204 -138 -98 -289 -275 -369
-431 -91 -182 -137 -434 -116 -641 40 -383 251 -711 582 -906 93 -54 172 -87
292 -120 133 -37 389 -45 527 -16 424 89 758 385 889 786 41 127 52 184 58
316 10 211 -28 387 -127 585 -155 310 -432 530 -772 616 -107 27 -377 35 -484
15z"/>
<path d="M66135 76523 c-227 -30 -522 -121 -730 -226 -363 -182 -690 -473
-916 -814 -80 -121 -183 -322 -232 -453 -108 -287 -151 -524 -151 -840 0 -273
34 -498 114 -738 289 -870 1051 -1492 1965 -1603 144 -17 426 -15 575 5 513
68 965 286 1334 646 192 187 328 367 446 593 182 346 270 704 270 1097 0 172
-10 282 -40 442 -116 615 -485 1168 -1016 1524 -208 139 -542 281 -784 333
-244 52 -594 66 -835 34z"/>
<path d="M33105 52188 c-6149 -4938 -12341 -9911 -13760 -11051 -1419 -1140
-2832 -2274 -3140 -2521 -308 -248 -559 -455 -557 -462 1 -7 60 -138 131 -291
1355 -2936 3146 -5636 5317 -8018 676 -741 1540 -1598 2267 -2249 2357 -2107
4959 -3817 7812 -5133 1989 -918 4097 -1631 6238 -2109 187 -41 341 -74 343
-71 5 5 -314 440 -529 722 -1005 1315 -2335 2848 -3705 4272 l-213 222 -15 83
c-21 118 -30 455 -15 559 59 414 273 714 636 893 424 209 986 245 1590 101
750 -178 1587 -658 2412 -1383 346 -304 736 -697 977 -985 62 -73 251 -242
369 -329 236 -173 482 -258 671 -229 157 23 266 80 392 206 241 239 428 686
539 1286 l25 134 94 5845 c111 6904 101 6370 120 6495 78 528 318 991 702
1354 193 182 267 225 529 301 242 71 425 95 653 87 238 -8 374 -42 577 -142
403 -199 728 -649 900 -1245 19 -65 41 -158 51 -207 15 -84 13 -280 -45 -3888
-34 -2090 -61 -3809 -61 -3820 0 -11 21 28 46 86 94 222 211 395 379 564 130
129 258 223 410 300 139 69 225 98 388 130 429 84 791 74 1105 -31 701 -233
1098 -947 1152 -2075 9 -192 1 -546 -15 -659 -6 -42 -6 -42 71 135 159 363
365 637 629 836 90 68 149 103 265 157 211 100 376 140 615 149 144 5 176 3
319 -22 335 -56 583 -151 832 -316 158 -106 362 -311 473 -478 270 -406 417
-948 422 -1561 l1 -105 13 60 c80 357 343 611 785 759 237 79 438 109 647 96
1027 -66 1711 -649 2073 -1768 184 -567 273 -1203 287 -2047 15 -920 -87
-2067 -287 -3224 -11 -63 -17 -117 -15 -120 7 -6 471 169 905 342 4998 1992
9423 5265 12822 9482 1631 2025 3046 4316 4113 6663 86 189 88 194 69 211 -10
10 -2989 2403 -6619 5318 -3630 2915 -10063 8081 -14297 11480 -4233 3399
-7700 6183 -7705 6185 -4 3 -5039 -4035 -11188 -8974z"/>
</g>
</svg>
